HIERARCHY
ROOT Hips
{
  OFFSET 0 0 0
  CHANNELS 6 Xposition Yposition Zposition Zrotation Yrotation Xrotation
  JOINT LeftThigh
  {
    OFFSET 8.409438 0 -5.917753
    CHANNELS 3 Zrotation Yrotation Xrotation
    JOINT LeftLeg
    {
      OFFSET 0 0 -42.358652
      CHANNELS 3 Zrotation Yrotation Xrotation
      JOINT LeftFoot
      {
        OFFSET 0 0 -39.357303
        CHANNELS 3 Zrotation Yrotation Xrotation
      }
    }
  }
  JOINT RightThigh
  {
    OFFSET -8.409438 0 -5.917753
    CHANNELS 3 Zrotation Yrotation Xrotation
    JOINT RightLeg
    {
      OFFSET 0 0 -42.358652
      CHANNELS 3 Zrotation Yrotation Xrotation
      JOINT RightFoot
      {
        OFFSET 0 0 -39.357303
        CHANNELS 3 Zrotation Yrotation Xrotation
      }
    }
  }
  JOINT SpineLow
  {
    OFFSET 0 0 4.719101
    CHANNELS 3 Zrotation Yrotation Xrotation
    JOINT SpineMid
    {
      OFFSET 0 0 12.899191
      CHANNELS 3 Zrotation Yrotation Xrotation
      JOINT Chest
      {
        OFFSET 0 0 12.899191
        CHANNELS 3 Zrotation Yrotation Xrotation
        JOINT LeftShoulder
        {
          OFFSET 7.550562 1.41573 9.438202
          CHANNELS 3 Zrotation Yrotation Xrotation
          JOINT LeftArm
          {
            OFFSET 9.155056 0 4.247191
            CHANNELS 3 Zrotation Yrotation Xrotation
            JOINT LeftForearm
            {
              OFFSET 0 0 25.771955
              CHANNELS 3 Zrotation Yrotation Xrotation
              JOINT LeftHand
              {
                OFFSET 0 0 25.197169
                CHANNELS 3 Zrotation Yrotation Xrotation
              }
            }
          }
        }
        JOINT RightShoulder
        {
          OFFSET -7.550562 1.41573 9.438202
          CHANNELS 3 Zrotation Yrotation Xrotation
          JOINT RightArm
          {
            OFFSET -9.155056 0 4.247191
            CHANNELS 3 Zrotation Yrotation Xrotation
            JOINT RightForearm
            {
              OFFSET 0 0 -25.771955
              CHANNELS 3 Zrotation Yrotation Xrotation
              JOINT RightHand
              {
                OFFSET 0 0 -25.197169
                CHANNELS 3 Zrotation Yrotation Xrotation
              }
            }
          }
        }
        JOINT Neck
        {
          OFFSET 0 0 15.101124
          CHANNELS 3 Zrotation Yrotation Xrotation
          JOINT Head
          {
            OFFSET 0 0 11.325843
            CHANNELS 3 Zrotation Yrotation Xrotation
            End Site
            {
              OFFSET 0 0 14.157303
            }
          }
        }
      }
    }
  }
}
MOTION
Frames: 9
Frame Time: 0.0
0.0  89.887642  0.0  24.674614  -27.134845  -130.660033  50.955211  -12.342088  -54.492868  -6.507954  30.203486  98.071479  5.096713  0.214802  0.812077  2.317839  16.015824  17.473891  16.153003  1.939212  22.867721  5.333988  3.296147  2.07787  1.412276  1.107916  2.037423  3.952865  2.905736  5.63499  3.952865  2.905736  5.63499  6.817408  18.902235  22.419189  179.41565  51.148184  -152.557551  -26.436181  -22.972719  59.779386  77.131281  -7.283253  8.87342  10.02452  -4.754829  24.877187  85.312893  48.551897  10.965352  -13.125413  23.212323  -49.905826  92.302035  4.144256  -8.837316  5.24425  4.355456  9.20841  3.866594  3.346756  6.866152  
0.0  89.887642  0.0  24.026833  -27.04687  -129.636923  50.923646  -11.081872  -54.430916  -6.63443  28.878602  98.74091  3.965549  0.077099  0.068924  2.14109  15.47042  16.798968  15.537989  1.931332  22.550052  5.399761  3.194801  2.224835  1.45777  1.039438  1.977149  4.068711  2.71866  5.467609  4.068711  2.71866  5.467609  7.270765  19.120226  22.569225  -179.125281  52.144797  -150.376057  -25.78429  -22.427582  59.794527  77.381802  -6.963052  10.752242  9.841687  -4.399452  24.912784  85.108585  48.973772  11.153905  -12.443501  23.284349  -49.379298  92.233628  5.116655  -9.070352  4.950182  4.3092  9.171132  3.647083  3.307282  6.840685  
0.0  89.887642  0.0  23.356711  -26.850633  -128.764945  50.585729  -9.900288  -53.968725  -6.854574  28.48278  98.324149  3.890021  0.13954  0.014187  1.59299  15.161944  16.187965  15.392495  1.749392  22.389661  5.329653  3.107057  2.273732  1.519159  1.001112  1.961896  4.232576  2.609905  5.425724  4.232576  2.609905  5.425724  7.441445  19.135756  22.518857  -177.810426  53.063615  -148.281316  -24.996455  -22.145286  59.585001  77.406297  -7.140331  12.538205  9.669155  -4.175037  24.832641  85.103793  49.483733  11.507289  -12.005566  23.271141  -48.9613  92.341833  6.018674  -9.270115  4.536981  4.18089  8.982031  3.340534  3.203341  6.702892  
0.0  89.887642  0.0  22.728995  -26.737842  -127.874183  50.507241  -8.725564  -53.297973  -7.21602  28.081371  97.534446  3.889308  0.184041  3.68E-4  0.778519  14.929636  15.344502  14.742074  1.501643  21.981856  5.849988  3.241978  2.599969  1.610869  0.978907  1.982031  4.482017  2.540323  5.482635  4.482017  2.540323  5.482635  7.516033  19.002642  22.151645  -177.126346  53.873803  -146.479173  -24.0102  -22.393602  59.291798  77.386229  -7.131936  14.009601  9.269712  -3.989915  24.364602  85.581524  49.847603  12.06865  -11.832315  23.136321  -48.621916  92.709526  6.65761  -9.619351  4.212509  3.966871  8.671104  3.102494  3.035788  6.473719  
0.0  89.887642  0.0  22.064797  -26.421998  -126.818893  50.300861  -7.700014  -52.746861  -7.224339  27.778995  96.83547  3.872706  0.222989  0.001469  -0.138624  14.738679  14.32561  14.869236  1.266241  22.048023  5.794829  3.213082  2.660265  1.652673  0.990698  1.99358  4.597696  2.568199  5.516609  4.597696  2.568199  5.516609  7.581577  18.819427  21.643287  -176.895994  54.6374  -145.09206  -23.050564  -22.970893  59.145846  77.519369  -6.872284  15.141551  9.344659  -3.865497  23.806344  85.799119  50.167385  12.572862  -12.010112  22.833582  -48.500734  93.220737  6.97871  -10.411869  3.812748  3.730506  8.202044  2.809019  2.849767  6.126345  
0.0  89.887642  0.0  21.555143  -26.163101  -125.920086  50.268276  -6.895615  -52.106138  -7.009354  27.558188  96.185249  3.843601  0.266754  0.014875  -0.735932  14.458892  13.429474  14.830009  1.083473  22.138429  5.756717  3.206694  2.709452  1.693663  1.022786  2.032153  4.713982  2.649553  5.625985  4.713982  2.649553  5.625985  7.600952  18.504471  20.967254  -177.067535  55.129091  -144.060466  -22.258333  -23.730838  59.050851  78.285391  -4.636087  15.208718  9.607341  -3.870162  23.142358  85.979345  50.308141  13.094884  -12.438723  22.518235  -48.535783  93.6886  7.151705  -11.602193  3.549365  3.478102  7.71072  2.617768  2.653948  5.761276  
0.0  89.887642  0.0  21.028159  -25.744911  -125.222792  50.123101  -6.401015  -51.272756  -6.579009  27.41581  95.613937  3.79776  0.308094  0.019858  -1.216158  14.159088  12.855018  14.783783  0.988439  22.171305  5.687654  3.193387  2.749927  1.722177  1.069718  2.083546  4.798148  2.771423  5.771168  4.798147  2.771423  5.771168  7.636924  18.095066  20.357332  -177.728363  55.613711  -143.477204  -21.627404  -24.495337  59.089029  78.851896  -4.283646  16.177695  9.822727  -3.955032  22.543942  85.888651  50.312383  13.396376  -13.013337  22.12683  -48.784851  94.209269  7.236706  -12.917668  3.14686  3.194279  7.252636  2.321977  2.433525  5.421778  
0.0  89.887642  0.0  20.46312  -25.197914  -124.634016  49.85817  -6.17164  -50.27116  -5.938095  27.317068  95.100116  3.694597  0.339485  0.001377  -1.595405  13.7898  12.527051  14.794975  0.901335  22.207926  5.568768  3.154797  2.767209  1.77792  1.104468  2.153223  4.956531  2.856062  5.966619  4.956531  2.856062  5.966618  7.278815  17.741087  19.801996  -178.110751  56.037122  -143.099148  -21.045093  -25.002734  59.456367  79.379993  -4.036214  16.992972  9.75448  -4.11861  22.098739  85.603873  50.298454  13.561451  -13.709744  21.796314  -49.143003  94.749765  7.204577  -14.180926  2.708854  2.917234  6.895009  1.998564  2.218865  5.157321  
0.0  89.887642  0.0  19.909266  -24.743266  -124.010708  49.776902  -6.024784  -49.327341  -5.224718  27.317169  94.67722  3.616579  0.373419  -0.012862  -1.541578  13.307107  12.303819  14.229833  0.87214  22.071773  5.383691  3.162654  2.765246  1.880526  1.119874  2.166139  5.238886  2.887715  6.007445  5.238886  2.887715  6.007446  6.754019  17.50007  19.638687  -178.607834  56.548404  -142.57285  -20.552227  -25.521807  59.59873  79.80826  -3.932515  17.710928  9.384797  -4.301538  21.895654  84.996952  50.17369  13.422019  -14.386326  21.436146  -49.6374  95.260586  6.977797  -15.302099  1.994847  2.685197  6.649081  1.466833  2.035907  4.977191  
